# xmcd CD database file
#
# Track frame offsets:
#	150
#	16480
#	32985
#	51650
#	68575
#	117735
#	138270
#	155415
#	170425
#	190335
#	211620
#
# Disc length: 3093 seconds
#
# Revision: 2
# Processed by: cddbd v1.4PL0 Copyright (c) Steve Scherf et al.
# Submitted via: CDex 1.40Release
#
DISCID=9d0c130b
DTITLE=Eugenio Finardi - Le Ragazze Di Osaka
DYEAR=1996
DGENRE=Pop
TTITLE0=Le Ragazze Di Osaka
TTITLE1=Dolce Italia
TTITLE2=Colpi Di Fulmine
TTITLE3=Dal Blu
TTITLE4=Come In Uno Specchio
TTITLE5=Il Vento Di Elora
TTITLE6=La Vita Fa Male
TTITLE7=Valeria Come Stai
TTITLE8=Bisogno Di Te
TTITLE9=Musica Ribelle
TTITLE10=La Mia Vita Senza Te
EXTD=YEAR: 1996 ID3G: 13
EXTT0=
EXTT1=
EXTT2=
EXTT3=
EXTT4=
EXTT5=
EXTT6=
EXTT7=
EXTT8=
EXTT9=
EXTT10=
PLAYORDER=
